<svg width="24" height="24" viewBox="0 0 24 24" fill="none" xmlns="http://www.w3.org/2000/svg">
  <!-- 外框 -->
  <rect x="4" y="2" width="16" height="3" rx="1" fill="#8B4513" stroke="#654321" stroke-width="0.5"/>
  <rect x="4" y="19" width="16" height="3" rx="1" fill="#8B4513" stroke="#654321" stroke-width="0.5"/>
  
  <!-- 沙漏主体轮廓 -->
  <path d="M6 5 L18 5 L18 8 L12 12 L18 16 L18 19 L6 19 L6 16 L12 12 L6 8 Z" 
        fill="none" stroke="#654321" stroke-width="1.5" stroke-linejoin="round"/>
  
  <!-- 上半部分的沙子 -->
  <path d="M7 6 L17 6 L17 7.5 L12 11 L7 7.5 Z" fill="#F4A460"/>
  
  <!-- 下半部分的沙子 -->
  <path d="M7 16.5 L17 16.5 L17 18 L7 18 Z" fill="#F4A460"/>
  
  <!-- 正在流动的沙子线条 -->
  <line x1="12" y1="11" x2="12" y2="13" stroke="#F4A460" stroke-width="2" stroke-linecap="round"/>
  
  <!-- 颗粒效果 -->
  <circle cx="11.5" cy="13.5" r="0.5" fill="#DEB887"/>
  <circle cx="12.5" cy="14" r="0.3" fill="#DEB887"/>
  <circle cx="11.8" cy="14.5" r="0.4" fill="#DEB887"/>
</svg>